<svg width="97" height="97" xmlns="http://www.w3.org/2000/svg" xmlns:xlink="http://www.w3.org/1999/xlink" xml:space="preserve" overflow="hidden"><g transform="translate(-893 -296)"><g><g><g><g><path d="M902 317 902 373 982 373 982 317 902 317ZM943.4 351.9C942.6 352.7 941.4 352.7 940.6 351.9L911 323 973.1 323 943.4 351.9ZM927.5 344.7 908 364.3 908 325.6 927.5 344.7ZM930.4 347.5 937.9 354.8C939.1 355.9 940.6 356.5 942.1 356.5 943.6 356.5 945.1 355.9 946.3 354.8L953.8 347.5 973.2 367 910.9 367 930.4 347.5ZM956.5 344.7 976 325.7 976 364.2 956.5 344.7Z" fill="#000000" fill-rule="nonzero" fill-opacity="1"/></g></g></g></g></g></svg>