<svg width="376" height="376" xmlns="http://www.w3.org/2000/svg" xmlns:xlink="http://www.w3.org/1999/xlink" xml:space="preserve" overflow="hidden"><g transform="translate(-592 -312)"><g><path d="M623.333 390.333 623.333 609.667 936.667 609.667 936.667 390.333 623.333 390.333ZM785.483 527.025C782.35 530.158 777.65 530.158 774.517 527.025L658.583 413.833 901.808 413.833 785.483 527.025ZM723.208 498.825 646.833 575.592 646.833 424.017 723.208 498.825ZM734.567 509.792 763.942 538.383C768.642 542.692 774.517 545.042 780.392 545.042 786.267 545.042 792.142 542.692 796.842 538.383L826.217 509.792 902.2 586.167 658.192 586.167 734.567 509.792ZM836.792 498.825 913.167 424.408 913.167 575.2 836.792 498.825Z" fill="#FFFFFF" fill-rule="nonzero" fill-opacity="1"/></g></g></svg>