<svg width="377" height="376" xmlns="http://www.w3.org/2000/svg" xmlns:xlink="http://www.w3.org/1999/xlink" xml:space="preserve" overflow="hidden"><g transform="translate(-172 -24)"><g><g><g><g><path d="M326.533 138.367C329.667 135.233 331.625 130.925 331.625 126.225 331.625 121.525 329.667 117.217 326.533 114.083L272.483 60.425C269.35 57.2917 265.042 55.3333 260.733 55.3333 256.425 55.3333 251.725 57.2917 248.592 60.425L242.717 66.3 320.658 144.242 326.533 138.367Z" fill="#FFFFFF" fill-rule="nonzero" fill-opacity="1"/><path d="M405.258 276.625C403.692 278.192 401.342 278.975 399.383 278.975 397.425 278.975 395.075 278.192 393.508 276.625L296.375 179.883C294.808 178.317 294.025 175.967 294.025 174.008 294.025 172.05 294.808 169.7 296.375 168.133L308.517 156.383 230.575 78.4417C225.483 83.5333 220.783 88.2333 217.65 91.3667 209.817 98.8083 205.117 108.6 204.725 119.175 203.55 136.8 207.858 153.642 213.733 170.092 220 184.583 228.225 198.292 237.233 211.217 269.35 259.392 309.692 301.3 356.692 334.592 364.525 340.467 372.75 345.558 381.367 350.258 400.95 360.05 421.708 367.1 444.033 368.667 458.917 369.842 473.8 363.967 483.983 353L494.558 342.425 417.008 264.483 405.258 276.625Z" fill="#FFFFFF" fill-rule="nonzero" fill-opacity="1"/><path d="M512.575 300.517 458.525 246.467C455.392 243.333 451.083 241.375 446.383 241.375 441.683 241.375 437.375 243.333 434.242 246.467L428.367 252.733 506.308 330.675 512.183 324.8C515.317 321.667 517.275 317.358 517.275 312.658 517.275 307.958 515.708 303.65 512.575 300.517Z" fill="#FFFFFF" fill-rule="nonzero" fill-opacity="1"/></g></g></g></g></g></svg>